<svg xmlns="http://www.w3.org/2000/svg" viewBox="0 0 600 360"><defs><linearGradient id="o" x1="0" x2="1"><stop stop-color="#fff" stop-opacity=".28"/><stop offset="1" stop-color="#fff" stop-opacity=".04"/></linearGradient></defs><path d="M75 73c46-42 92 8 139-25 41-29 71-17 99 13 37 40 84 8 119 43 38 37 91 23 104 74 11 43-42 62-73 67-43 7-58 55-110 50-50-4-79-30-116-18-36 11-65-9-91-34-28-26-82-13-96-55-14-43-8-87 25-115Z" fill="url(#o)" stroke="#fff" stroke-opacity=".35" stroke-width="4"/><circle cx="161" cy="156" r="9" fill="#fff" fill-opacity=".75"/><circle cx="318" cy="105" r="7" fill="#fff" fill-opacity=".75"/><circle cx="414" cy="219" r="9" fill="#fff" fill-opacity=".75"/><path d="M160 156 318 105l96 114" fill="none" stroke="#fff" stroke-opacity=".35" stroke-width="3" stroke-dasharray="8 8"/><text x="36" y="330" fill="#fff" fill-opacity=".62" font-family="Arial" font-size="18" font-weight="700" letter-spacing="3">FIELD MAP / PLACEHOLDER</text></svg>
